<svg width="20" height="16" viewBox="0 0 20 16" fill="none" xmlns="http://www.w3.org/2000/svg">
<path id="twitter" d="M20 1.84518C19.25 2.21441 18.5 2.33749 17.625 2.46056C18.5 1.96825 19.125 1.22979 19.375 0.245177C18.625 0.737485 17.75 0.983639 16.75 1.22979C16 0.491331 14.875 -0.000976562 13.75 -0.000976562C11.125 -0.000976562 9.125 2.46056 9.75 4.9221C6.375 4.79902 3.375 3.19902 1.25 0.737485C0.125 2.58364 0.75 4.9221 2.5 6.15287C1.875 6.15287 1.25 5.90672 0.625 5.66056C0.625 7.50672 2 9.22979 3.875 9.7221C3.25 9.84518 2.625 9.96825 2 9.84518C2.5 11.4452 4 12.6759 5.875 12.6759C4.375 13.7836 2.125 14.399 0 14.1529C1.875 15.2606 4 15.999 6.25 15.999C13.875 15.999 18.125 9.7221 17.875 3.93748C18.75 3.44518 19.5 2.70672 20 1.84518Z" fill="white"/>
</svg>
