<svg width="36" height="36" viewBox="0 0 36 36" fill="none" xmlns="http://www.w3.org/2000/svg">
<g id="2 - Regular / map-marker">
<path id="map-marker-Regular" d="M18.006 32.625C24.63 32.625 29.625 27.627 29.625 21C29.625 11.688 22.521 5.88607 19.4685 3.82507C19.0245 3.52507 18.516 3.375 18.006 3.375C17.499 3.375 16.9905 3.52493 16.5465 3.82343C13.488 5.88893 6.37499 11.6985 6.375 21.0015C6.375 27.6285 11.3745 32.625 18.006 32.625ZM17.805 5.68799C17.9295 5.60399 18.084 5.60399 18.2085 5.68799C20.3595 7.13999 27.375 12.5355 27.375 21C27.375 26.3445 23.3475 30.375 18.006 30.375C12.6585 30.375 8.625 26.3445 8.625 21C8.62499 12.7755 15.045 7.55099 17.805 5.68799Z" fill="#456CD9"/>
</g>
</svg>
