<svg xmlns="http://www.w3.org/2000/svg" xml:space="preserve" width="1200px" height="900px" style="shape-rendering:geometricPrecision; text-rendering:geometricPrecision; image-rendering:optimizeQuality; fill-rule:evenodd; clip-rule:evenodd" viewBox="0 0 1200 900" xmlns:xlink="http://www.w3.org/1999/xlink">
<style type="text/css">
.fil3 {fill:#0157A2}
.fil1 {fill:#154D93}
.fil2 {fill:#1872B8}
.fil5 {fill:#18983D}
.fil4 {fill:#E42D24}
.fil0 {fill: none}
</style>
<path class="fil0" d="M118 631c179,35 302,59 416,-91 7,-9 10,-14 16,-24 21,-32 0,-25 101,-26 -22,84 -126,144 -209,164 -54,13 -117,16 -175,11 -27,-2 -139,-18 -149,-35zm59 -159l-37 0c3,-12 68,-125 77,-139l45 0 26 138 -44 0 -3 -23 -48 0c-4,9 -6,18 -16,23zm126 0c2,-34 15,-82 21,-118 4,-25 0,-20 49,-21 22,0 44,0 58,12 28,25 9,84 -10,105 -26,29 -71,22 -118,22zm230 0l-41 0c1,-34 17,-45 1,-77 -7,-15 -25,-47 -28,-62l45 0 19 45c46,-46 14,-45 82,-45 -11,19 -34,40 -49,59 -28,33 -17,35 -30,80zm439 -94l-29 47 -24 45 -244 1 24 -46c10,-11 18,-37 29,-47l23 -45 243 0 -24 45zm-216 -128l-293 0c-149,0 -295,-23 -376,124 -26,47 -24,77 -28,135 -29,-32 -31,-122 -15,-168 18,-54 49,-92 83,-120 101,-82 187,-74 336,-74l294 0 407 0c-9,16 -59,98 -71,103l-336 0zm-757 650l1200 0 0 -900 -1200 0 0 900z"/>
<path class="fil1" d="M464 250l0 -103c-150,0 -236,-8 -336,74 -35,28 -66,66 -83,120 -15,47 -14,137 15,168 4,-58 2,-88 28,-135 82,-147 228,-124 376,-124z"/>
<path class="fil2" d="M757 250l336 0c12,-6 62,-87 71,-103l-407 0 0 103z"/>
<polygon class="fil3" points="464,250 757,250 757,147 464,147 "/>
<path class="fil3" d="M118 631c10,17 121,33 149,35 58,5 121,2 175,-11 83,-20 188,-80 209,-164 -100,1 -79,-7 -101,26 -6,9 -9,15 -16,24 -115,150 -237,126 -416,91z"/>
<path class="fil1" d="M367 367c36,-5 39,13 31,44 -6,23 -19,35 -47,28l15 -72zm-64 106c46,0 92,7 118,-22 19,-21 38,-80 10,-105 -13,-12 -36,-12 -58,-12 -49,0 -44,-5 -49,21 -6,36 -19,84 -21,118z"/>
<path class="fil1" d="M209 420c4,-16 14,-34 23,-46l4 46 -28 0zm-33 53c10,-5 11,-14 16,-23l48 0 3 23 44 0 -26 -138 -45 0c-9,13 -75,127 -77,139l37 0z"/>
<path class="fil4" d="M700 425l244 1 29 -47 -243 0c-12,10 -19,36 -29,47z"/>
<polygon class="fil5" points="944,426 700,425 677,471 920,471 "/>
<polygon class="fil3" points="730,378 973,378 996,333 753,333 "/>
<path class="fil1" d="M534 473c13,-45 2,-46 30,-80 16,-18 38,-40 49,-59 -68,-1 -36,-1 -82,45l-19 -45 -45 0c2,15 20,47 28,62 16,32 0,42 -1,77l41 0z"/>
<path class="fil0" d="M351 439c27,7 41,-5 47,-28 8,-31 4,-49 -31,-44l-15 72z"/>
<path class="fil0" d="M209 420l28 0 -4 -46c-9,12 -19,30 -23,46z"/>
</svg>