<svg version="1.1" id="Layer_1" xmlns="http://www.w3.org/2000/svg" xmlns:xlink="http://www.w3.org/1999/xlink" x="0px" y="0px"
	 viewBox="0 0 311.81 243.78" style="enable-background:new 0 0 311.81 243.78;" xml:space="preserve">
<style type="text/css">
	.st0{fill-rule:evenodd;clip-rule:evenodd;fill:#FCAF17;}
	.st1{fill-rule:evenodd;clip-rule:evenodd;fill:#BEBEBD;}
	.st2{fill-rule:evenodd;clip-rule:evenodd;fill:#B65F3B;}
	.st3{fill:#000000;}
</style>
<polygon class="st0" points="214.66,14.95 233.79,34.07 194.45,73.42 233.79,112.76 214.66,131.89 175.32,92.54 156.19,73.42 
	175.32,54.29 "/>
<rect x="212.78" y="59.89" transform="matrix(0.7071 -0.7071 0.7071 0.7071 14.3711 181.5263)" class="st1" width="27.05" height="27.05"/>
<polygon class="st0" points="65.84,112.76 84.97,131.89 124.31,92.54 163.65,131.89 182.78,112.76 143.44,73.42 124.31,54.29 
	105.18,73.42 "/>
<rect x="110.79" y="110.88" transform="matrix(0.7071 -0.7071 0.7071 0.7071 -51.5568 124.3383)" class="st2" width="27.05" height="27.05"/>
<g>
	<g>
		<path class="st3" d="M290.47,196.86c0,1.05-0.07,1.95-0.3,2.85c-1.2,4.95-5.25,7.87-9.67,7.87c-7.12,0-10.72-6.07-10.72-13.42
			c0-8.02,4.05-14.02,10.87-14.02c4.95,0,8.55,3.45,9.52,7.65c0.23,0.82,0.3,1.95,0.3,2.77V196.86z M290.47,158.85v21.67h-0.15
			c-1.65-2.92-5.4-5.55-10.95-5.55c-8.85,0-16.34,7.42-16.27,19.49c0,11.02,6.75,18.44,15.52,18.44c5.92,0,10.35-3.07,12.37-7.12
			h0.15l0.3,6.3h5.92c-0.22-2.47-0.3-6.15-0.3-9.37v-43.86H290.47z"/>
		<rect x="248.04" y="159.68" class="st3" width="6.6" height="53.23"/>
		<path class="st3" d="M222.1,179.92c7.8,0,10.87,7.8,10.87,13.94c0,8.17-4.72,14.09-11.02,14.09c-6.45,0-11.02-6-11.02-13.94
			C210.93,187.12,214.3,179.92,222.1,179.92 M222.25,174.97c-10.05,0-17.99,7.12-17.99,19.27c0,11.47,7.57,18.67,17.39,18.67
			c8.77,0,18.07-5.85,18.07-19.27C239.72,182.55,232.67,174.97,222.25,174.97z"/>
		<path class="st3" d="M196.76,185.84h-16.64v5.25h10.27v15.07c-1.5,0.75-4.42,1.35-8.7,1.35c-11.77,0-19.49-7.57-19.49-20.39
			c0-12.67,8.02-20.32,20.32-20.32c5.1,0,8.47,0.97,11.17,2.17l1.57-5.32c-2.17-1.05-6.75-2.32-12.59-2.32
			c-16.94,0-27.29,11.02-27.36,26.09c0,7.87,2.7,14.62,7.05,18.82c4.95,4.72,11.25,6.67,18.89,6.67c6.82,0,12.6-1.72,15.52-2.77
			V185.84z"/>
		<path class="st3" d="M133.56,212.91h6.52v-19.34c0-1.12,0.15-2.17,0.3-3.07c0.9-4.95,4.2-8.47,8.85-8.47
			c0.9,0,1.57,0.08,2.25,0.22v-6.22c-0.6-0.15-1.12-0.22-1.87-0.22c-4.42,0-8.4,3.07-10.05,7.95h-0.3l-0.22-7.12h-5.77
			c0.23,3.37,0.3,7.05,0.3,11.32V212.91z"/>
		<path class="st3" d="M99.75,190.49c0.53-4.57,3.45-10.72,10.12-10.72c7.42,0,9.22,6.52,9.15,10.72H99.75z M125.16,195.22
			c0.08-0.67,0.23-1.72,0.23-3.07c0-6.67-3.15-17.09-14.99-17.09c-10.57,0-17.02,8.62-17.02,19.57c0,10.95,6.67,18.29,17.84,18.29
			c5.77,0,9.75-1.2,12.07-2.25l-1.12-4.72c-2.47,1.05-5.32,1.87-10.05,1.87c-6.6,0-12.3-3.67-12.45-12.6H125.16z"/>
		<path class="st3" d="M60.31,212.91h29.46v-5.25H68.56v-0.15c1.65-1.87,3.15-3.67,4.65-5.7l16.19-21.07l0.07-4.12H61.81v5.32h19.64
			v0.15c-1.65,1.95-3.15,3.67-4.72,5.62l-16.42,21.37V212.91z"/>
		<path class="st3" d="M27.25,191.92l4.95-14.62c0.97-3.07,1.8-6.15,2.55-9.15h0.15c0.75,2.92,1.5,5.92,2.62,9.22l4.95,14.54H27.25z
			 M43.82,197.02l5.4,15.89h6.97l-17.24-50.53h-7.87L13.9,212.91h6.75l5.25-15.89H43.82z"/>
	</g>
</g>
</svg>