<svg width="20" height="20" viewBox="0 0 20 20" fill="none" xmlns="http://www.w3.org/2000/svg">
<g id="3 - Bold / arrow-right">
<path id="arrow-right-Bold" d="M18.089 10.5893L12.2556 16.4227C12.0931 16.5852 11.8798 16.6668 11.6665 16.6668C11.4532 16.6668 11.2399 16.5852 11.0774 16.4227C10.7515 16.0968 10.7515 15.5701 11.0774 15.2443L15.4882 10.8335H2.49984C2.039 10.8335 1.6665 10.461 1.6665 10.0002C1.6665 9.53932 2.039 9.16682 2.49984 9.16682H15.4882L11.0774 4.75601C10.7515 4.43018 10.7515 3.90346 11.0774 3.57763C11.4032 3.25179 11.9298 3.25179 12.2556 3.57763L18.089 9.41096C18.4148 9.73679 18.4148 10.2635 18.089 10.5893Z" fill="#374250"/>
</g>
</svg>
