<svg width="20" height="20" viewBox="0 0 20 20" fill="none" xmlns="http://www.w3.org/2000/svg">
<path id="linkedin" d="M4.50001 19.999H0.249996V6.62402H4.50001V19.999ZM2.375 4.74902C1 4.74902 0 3.74902 0 2.37402C0 0.999023 1.125 -0.000976562 2.375 -0.000976562C3.75 -0.000976562 4.75 0.999023 4.75 2.37402C4.75 3.74902 3.75 4.74902 2.375 4.74902ZM20 19.999H15.75V12.749C15.75 10.624 14.875 9.99902 13.625 9.99902C12.375 9.99902 11.125 10.999 11.125 12.874V19.999H6.875V6.62402H10.875V8.49902C11.25 7.62402 12.75 6.24902 14.875 6.24902C17.25 6.24902 19.75 7.62402 19.75 11.749V19.999H20Z" fill="white"/>
</svg>
