<svg width="24" height="24" viewBox="0 0 24 24" fill="none" xmlns="http://www.w3.org/2000/svg">
<g id="3 - Bold / search">
<path id="search-Bold" d="M21.7069 20.0666L17.1679 15.6185C18.3109 14.1994 18.9999 12.4129 18.9999 10.4696C18.9999 5.87635 15.1869 2.13965 10.4999 2.13965C5.81288 2.13965 1.99988 5.87635 1.99988 10.4696C1.99988 15.0628 5.81288 18.7995 10.4999 18.7995C12.4839 18.7995 14.3059 18.1252 15.7539 17.0041L20.2929 21.4523C20.4879 21.6434 20.7439 21.7394 20.9999 21.7394C21.2559 21.7394 21.5119 21.6434 21.7069 21.4523C22.0979 21.0692 22.0979 20.4497 21.7069 20.0666ZM3.99988 10.4696C3.99988 6.95728 6.91588 4.09963 10.4999 4.09963C14.0839 4.09963 16.9999 6.95728 16.9999 10.4696C16.9999 13.9818 14.0839 16.8395 10.4999 16.8395C6.91588 16.8395 3.99988 13.9818 3.99988 10.4696Z" fill="white"/>
</g>
</svg>
