<svg width="36" height="36" viewBox="0 0 36 36" fill="none" xmlns="http://www.w3.org/2000/svg">
<g id="2 - Regular / shield">
<path id="shield-Regular" d="M30.357 9.43267C25.713 7.88468 20.0415 4.94327 18.825 3.71027C18.615 3.49727 18.33 3.37727 18.0315 3.37427C17.766 3.38027 17.4464 3.48968 17.2334 3.69818C15.7739 5.13668 11.3504 8.01367 5.69394 9.61267C5.20944 9.74917 4.875 10.1917 4.875 10.6957C4.875 23.0422 6.79347 29.4681 17.6925 32.5821C17.793 32.6106 17.898 32.6257 18.0015 32.6257C18.105 32.6257 18.21 32.6106 18.3105 32.5821C29.2755 29.4486 31.125 23.2387 31.125 10.5007C31.1265 10.0162 30.816 9.58568 30.357 9.43267ZM18.0029 30.3292C8.99543 27.6637 7.20899 22.9868 7.12949 11.5373C12.0885 10.0073 16.041 7.62372 18.0465 5.98572C20.325 7.67322 25.1655 9.97882 28.875 11.3018C28.8 22.9223 27.0194 27.6592 18.0029 30.3292Z" fill="#456CD9"/>
</g>
</svg>
