<svg width="36" height="36" viewBox="0 0 36 36" fill="none" xmlns="http://www.w3.org/2000/svg">
<g id="2 - Regular / star">
<path id="star-Regular" d="M32.4735 14.5117C32.1015 13.3567 31.119 12.5318 29.9085 12.3578L23.6385 11.4608L20.838 5.86871C20.2995 4.79321 19.2135 4.12573 18 4.12573C16.7865 4.12573 15.7005 4.79321 15.162 5.86871L12.3615 11.4608L6.09153 12.3593C4.88103 12.5317 3.89854 13.3582 3.52654 14.5117C3.15904 15.6532 3.46953 16.8833 4.33953 17.7173L8.86654 22.0642L7.79853 28.1991C7.59303 29.3751 8.06704 30.5453 9.03454 31.2548C9.59554 31.6658 10.2525 31.8743 10.9155 31.8743C11.4165 31.8743 11.9205 31.7543 12.387 31.5128L17.9985 28.6056L23.61 31.5128C24.696 32.0738 25.98 31.9748 26.964 31.2548C27.9315 30.5453 28.4055 29.3751 28.2 28.1991L27.132 22.0642L31.659 17.7173C32.5305 16.8818 32.841 15.6532 32.4735 14.5117ZM30.102 16.0942L25.143 20.8568C24.873 21.1163 24.75 21.4927 24.8145 21.8602L25.9845 28.5862C26.0685 29.0647 25.767 29.3422 25.635 29.4397C25.524 29.5192 25.1265 29.7638 24.6465 29.5148L18.5175 26.3392C18.192 26.1712 17.8065 26.1712 17.4825 26.3392L11.3535 29.5148C10.875 29.7653 10.476 29.5207 10.365 29.4397C10.233 29.3422 9.93152 29.0648 10.0155 28.5848L11.1855 21.8602C11.25 21.4912 11.1255 21.1148 10.857 20.8568L5.89803 16.0942C5.54103 15.7507 5.61751 15.3548 5.66851 15.2003C5.72101 15.0398 5.8965 14.6588 6.411 14.5853L13.263 13.6042C13.6275 13.5517 13.944 13.3237 14.109 12.9937L17.1735 6.87524C17.4 6.42224 17.8275 6.37427 18 6.37427C18.1725 6.37427 18.5985 6.42224 18.8265 6.87524L21.891 12.9937C22.056 13.3237 22.3725 13.5517 22.737 13.6042L29.589 14.5838C30.1035 14.6573 30.279 15.0382 30.3315 15.1987C30.381 15.3547 30.459 15.7507 30.102 16.0942Z" fill="#456CD9"/>
</g>
</svg>
