<svg width="36" height="36" viewBox="0 0 36 36" fill="none" xmlns="http://www.w3.org/2000/svg">
<g id="2 - Regular / thumbtack">
<path id="thumbtack-Regular" d="M26.115 14.025L25.125 13.035L25.1265 9.41995C26.154 8.10745 26.625 6.0165 26.625 4.5C26.625 3.879 26.121 3.375 25.5 3.375H10.5C9.879 3.375 9.375 3.879 9.375 4.5C9.375 6.0165 9.846 8.10901 10.875 9.42151V13.0334L9.88504 14.0235C7.62154 16.287 6.375 19.2975 6.375 22.5C6.375 22.7985 6.49346 23.085 6.70496 23.295C6.91646 23.505 7.203 23.625 7.5 23.625H16.875V31.5C16.875 32.121 17.379 32.625 18 32.625C18.621 32.625 19.125 32.121 19.125 31.5V23.625H28.5C29.121 23.625 29.625 23.121 29.625 22.5C29.625 19.299 28.3785 16.2885 26.115 14.025ZM8.68955 21.375C8.93705 19.2 9.90604 17.1869 11.475 15.6164L12.795 14.298C13.0065 14.0865 13.125 13.7999 13.125 13.5029L13.1235 9C13.1235 8.7015 13.005 8.41496 12.7935 8.20496C12.318 7.72946 11.9055 6.69893 11.724 5.62793H24.2745C24.0915 6.69743 23.6805 7.73098 23.2035 8.20798C22.992 8.41948 22.8735 8.70593 22.8735 9.00293V13.5029C22.8735 13.8014 22.992 14.088 23.2035 14.298L24.5235 15.6164C26.094 17.1869 27.0615 19.2015 27.309 21.3765L8.68955 21.375Z" fill="#456CD9"/>
</g>
</svg>
