<svg width="36" height="36" viewBox="0 0 36 36" fill="none" xmlns="http://www.w3.org/2000/svg">
<g id="2 - Regular / users-three">
<path id="users-three-Regular" d="M18 19.1257C21.9285 19.1257 25.125 15.9292 25.125 12.0007C25.125 8.07223 21.9285 4.87573 18 4.87573C14.0715 4.87573 10.875 8.07223 10.875 12.0007C10.875 15.9292 14.0715 19.1257 18 19.1257ZM18 7.12573C20.688 7.12573 22.875 9.31273 22.875 12.0007C22.875 14.6887 20.688 16.8757 18 16.8757C15.312 16.8757 13.125 14.6887 13.125 12.0007C13.125 9.31273 15.312 7.12573 18 7.12573ZM28.125 26.1008V27.3997C28.125 28.6402 27.6705 29.8298 26.847 30.7493C26.6265 30.9983 26.3175 31.1243 26.0085 31.1243C25.74 31.1243 25.473 31.0297 25.2585 30.8377C24.795 30.4237 24.756 29.7128 25.17 29.2493C25.623 28.7423 25.8735 28.0852 25.8735 27.3997V26.1008C25.8735 24.2273 24.6315 22.6073 22.854 22.1618C22.563 22.0883 22.26 22.1287 22.0125 22.2682C19.5195 23.6572 16.4655 23.6512 13.992 22.2742C13.7325 22.1272 13.4295 22.0897 13.143 22.1602C11.364 22.6072 10.122 24.2273 10.122 26.1008V27.3997C10.122 28.0852 10.3725 28.7423 10.8255 29.2493C11.2395 29.7128 11.2005 30.4237 10.737 30.8377C10.275 31.2502 9.5625 31.2128 9.1485 30.7493C8.325 29.8298 7.87051 28.6387 7.87051 27.3997V26.1008C7.87051 23.1953 9.81147 20.6782 12.591 19.9777C13.431 19.7647 14.3475 19.8862 15.093 20.3137C16.8795 21.3067 19.0995 21.3127 20.907 20.3077C21.642 19.8862 22.5555 19.7632 23.4 19.9792C26.184 20.6782 28.125 23.1953 28.125 26.1008ZM25.9395 5.88226C26.1465 5.29726 26.7885 4.98972 27.375 5.19672C29.6175 5.98872 31.125 8.12023 31.125 10.5007C31.125 12.0997 30.441 13.6268 29.25 14.6933C29.034 14.8853 28.767 14.9797 28.5 14.9797C28.191 14.9797 27.8835 14.8537 27.6615 14.6047C27.2475 14.1412 27.2865 13.4302 27.75 13.0162C28.4655 12.3772 28.875 11.4607 28.875 10.5007C28.875 9.07273 27.9705 7.79331 26.625 7.31781C26.0385 7.11081 25.7325 6.46726 25.9395 5.88226ZM32.625 22.2502V23.3333C32.625 23.9543 32.121 24.4583 31.5 24.4583C30.879 24.4583 30.375 23.9543 30.375 23.3333V22.2502C30.375 20.7757 29.3985 19.5007 28.0005 19.1497C27.399 18.9982 27.0315 18.3877 27.183 17.7847C27.336 17.1817 27.9495 16.8173 28.548 16.9673C30.9495 17.5703 32.625 19.7422 32.625 22.2502ZM6.75 15.3593C5.559 14.2928 4.875 12.7657 4.875 11.1667C4.875 8.78619 6.3825 6.65467 8.625 5.86267C9.216 5.65567 9.85346 5.96322 10.0605 6.54822C10.2675 7.13472 9.9615 7.77676 9.375 7.98376C8.0295 8.45926 7.125 9.73869 7.125 11.1667C7.125 12.1252 7.5345 13.0417 8.25 13.6822C8.7135 14.0962 8.75253 14.8073 8.33853 15.2708C8.11803 15.5198 7.809 15.6458 7.5 15.6458C7.233 15.6458 6.9645 15.5513 6.75 15.3593ZM7.99951 19.8157C6.60151 20.1667 5.625 21.4417 5.625 22.9162V24.0007C5.625 24.6217 5.121 25.1257 4.5 25.1257C3.879 25.1257 3.375 24.6217 3.375 24.0007V22.9177C3.375 20.4097 5.05203 18.2377 7.45203 17.6347C8.05353 17.4877 8.66549 17.8493 8.81699 18.4523C8.96849 19.0523 8.60251 19.6642 7.99951 19.8157Z" fill="#456CD9"/>
</g>
</svg>
